# xmcd CD database file
#
# Track frame offsets:
#	150
#	21345
#	37042
#	60442
#	78882
#	99527
#	122052
#	142072
#	159822
#	177795
#	192205
#	213485
#	231527
#	249110
#	278562
#
# Disc length: 4440 seconds
#
# Revision: 6
# Processed by: cddbd v1.5.2PL0 Copyright (c) Steve Scherf et al.
# Submitted via: CDex 1.86
#
DISCID=c611560f
DTITLE=Kasey Chambers - Wayward Angel
DYEAR=2004
DGENRE=Country
TTITLE0=Pony
TTITLE1=Hollywood
TTITLE2=Stronger
TTITLE3=Bluebird
TTITLE4=More Than Ordinary
TTITLE5=Wayward Angel
TTITLE6=Paper Aeroplane
TTITLE7=Like A River
TTITLE8=For Sale
TTITLE9=Follow You Home
TTITLE10=Mother
TTITLE11=Guilty As Sin
TTITLE12=Lost And Found
TTITLE13=Saturated
TTITLE14=Data (Copy Control)
EXTD=YEAR: 2004
EXTT0=
EXTT1=
EXTT2=
EXTT3=
EXTT4=
EXTT5=
EXTT6=
EXTT7=
EXTT8=
EXTT9=
EXTT10=
EXTT11=
EXTT12=
EXTT13=
EXTT14=
PLAYORDER=
